# xmcd CD database file generated by OrangeCD 6.1
#
# Track frame offsets:
#	150
#	27291
#	43212
#	63017
#	81950
#	96871
#	112066
#	130912
#	159529
#	177818
#
# Disc length: 2608 seconds
#
# Revision: 0
# Processed by: cddbd v1.5.2PL0 Copyright (c) Steve Scherf et al.
# Submitted via: OrangeCD 6.1
#
DISCID=800a2e0a
DTITLE=Odyssey - Best Of
DYEAR=2007
DGENRE=Soul
TTITLE0=Hang Together
TTITLE1=Magic Touch
TTITLE2=When You Love Somebody
TTITLE3=Don't Tell Me, Tell Her
TTITLE4=Weekend Lover
TTITLE5=Easy Come Easy Go
TTITLE6=Baby That's All I Want
TTITLE7=Happy Together
TTITLE8=Hold On To Love
TTITLE9=Love's Alright
EXTD=
EXTT0=
EXTT1=
EXTT2=
EXTT3=
EXTT4=
EXTT5=
EXTT6=
EXTT7=
EXTT8=
EXTT9=
PLAYORDER=
